<svg id="圖層_1" data-name="圖層 1" xmlns="http://www.w3.org/2000/svg" xmlns:xlink="http://www.w3.org/1999/xlink" viewBox="0 0 436.59 340.62"><defs><style>.cls-1,.cls-11,.cls-9{fill:none;}.cls-2{fill:#b7b7b7;}.cls-10,.cls-11,.cls-2,.cls-3,.cls-4,.cls-7,.cls-8,.cls-9{stroke:#231815;stroke-miterlimit:10;}.cls-10,.cls-2,.cls-3,.cls-4,.cls-7,.cls-8,.cls-9{stroke-width:3px;}.cls-3{fill:#d15452;}.cls-4{fill:#dd5756;}.cls-5{clip-path:url(#clip-path);}.cls-6{fill:#8babd6;}.cls-7{fill:#96c894;}.cls-8{fill:#f5ef71;}.cls-10{fill:#231815;}.cls-11{stroke-width:15px;}</style><clipPath id="clip-path"><rect class="cls-1" x="61.83" y="76.58" width="295.99" height="262.21" rx="19.67" ry="19.67"/></clipPath></defs><title>遊程氏</title><rect class="cls-2" x="209.83" y="33.92" width="12.33" height="36.67"/><rect class="cls-3" x="166.16" y="64.25" width="100" height="23.67"/><path class="cls-4" d="M59.64,203.85c-6.84-1.71-14.33,4.73-23.38,1.65-10.64-3.61-9.53-19.37-17.74-20.77C11.05,183.46.15,194.79,1.64,202.91c1.68,9.19,18.36,9.3,19.47,17.74,1.16,8.78-16.33,13.15-16,22.94.33,10.38,20.5,20.84,27.26,16,6.5-4.64-1.64-21.79,5.2-26,5.37-3.28,15.12,3.73,22.08,2.38C79.16,232.24,80.62,209.1,59.64,203.85Z"/><path class="cls-4" d="M351.17,223.82c9.22,6.28,37.28,40.58,53.82,2.42,5.61-12.93,11.75,6.51,18.54,7.62,12.43,2,23.81-42.45-16.68-44.25-30.19-1.34-15.35,22.52-22.25,26.37-3.23,1.8-11.12,5.38-5.82-25.25,1.54-8.91-24.5,2.9-26.77,5.79Z"/><g class="cls-5"><rect class="cls-6" x="66.64" y="45.95" width="309.71" height="292.85"/><path class="cls-7" d="M19.54,218.89l63,0L212,219c4.19,1.67-6.07-54.62-3.11-54.86s29.63,20.83,27.42-18.81c-1.77-31.8-23.85-7.6-29.32-9.48s2-84.9,2-84.9L46.37,48.28S26,97.25,25,97.25,6.67,161,6.67,161Z"/><path class="cls-8" d="M155.13,338.79s-.58-47.36-1.47-46c-1.38,2.16-33.67,20.84-33.17-12.16.6-39.88,30-11.75,33.5-11.75l-.31-50-96.89-.59c-6.47,30.13-18.43,93.4-.5,116C61.55,340.93,105.79,338.79,155.13,338.79Z"/></g><rect class="cls-9" x="61.83" y="77.04" width="295.99" height="261.75" rx="16.1" ry="16.1"/><ellipse class="cls-10" cx="117.4" cy="212.22" rx="20.93" ry="28.48"/><ellipse class="cls-10" cx="303.76" cy="212.22" rx="20.93" ry="28.48"/><path class="cls-11" d="M168,254.34c28.3,35.42,58.21,35.79,85.95-3.23"/><circle class="cls-3" cx="215.99" cy="18.33" r="16.83"/></svg>